<?xml version="1.0" standalone="no"?>
<!DOCTYPE svg PUBLIC "-//W3C//DTD SVG 20010904//EN"
 "http://www.w3.org/TR/2001/REC-SVG-20010904/DTD/svg10.dtd">
<svg version="1.0" xmlns="http://www.w3.org/2000/svg"
 width="16.000000pt" height="16.000000pt" viewBox="0 0 16.000000 16.000000"
 preserveAspectRatio="xMidYMid meet">
<metadata>
Created by potrace 1.11, written by Peter Selinger 2001-2013
</metadata>
<g transform="translate(0.000000,16.000000) scale(0.016000,-0.016000)"
fill="#000000" stroke="none">
<path d="M497 815 c-53 -20 -94 -51 -125 -95 -26 -35 -28 -36 -57 -24 -35 15
-90 9 -123 -12 -26 -17 -62 -71 -62 -94 0 -9 -16 -24 -36 -35 -99 -53 -122
-196 -46 -287 55 -66 69 -68 455 -68 366 0 390 3 440 48 30 27 57 88 57 127 0
74 -52 146 -120 166 -33 10 -37 15 -38 46 -3 78 -69 175 -147 215 -51 26 -147
33 -198 13z m179 -48 c74 -38 114 -101 123 -191 6 -56 7 -60 35 -63 133 -18
169 -176 56 -251 l-34 -23 -357 3 c-343 3 -359 4 -385 24 -51 38 -69 71 -69
128 0 63 35 118 91 141 26 11 34 20 34 39 0 14 13 40 28 57 34 38 89 42 133
10 l28 -21 26 49 c30 55 70 88 129 107 49 16 122 12 162 -9z"/>
<path d="M344 536 c-12 -49 43 -76 70 -33 15 24 -3 51 -37 55 -21 3 -28 -2
-33 -22z"/>
<path d="M590 545 c-15 -18 -10 -45 13 -59 34 -22 73 27 47 59 -16 19 -44 19
-60 0z"/>
<path d="M306 411 c-11 -18 5 -38 58 -70 99 -60 217 -51 302 24 31 26 36 36
27 46 -10 9 -19 6 -48 -15 -53 -41 -95 -55 -155 -52 -57 3 -98 19 -139 55 -26
23 -37 26 -45 12z"/>
</g>
</svg>
